inDegrees=no
num_controls=7
num_derivatives=13
num_iterations=69
num_multipliers=7
num_parameters=0
num_slacks=7
num_states=26
objective=0.331277
objective_accelerations=0.041337
objective_balance=0.001475
objective_effort=0.030105
objective_height=0.257095
objective_ligament=0.001265
solver_duration=718.202088
status=Solve_Succeeded
success=true
DataType=double
version=3
OpenSimVersion=4.5
endheader
time	/jointset/ground_pelvis/pelvis_tilt/value	/jointset/ground_pelvis/pelvis_tx/value	/jointset/ground_pelvis/pelvis_ty/value	/jointset/hip_r/hip_flexion_r/value	/jointset/hip_r/hip_adduction_r/value	/jointset/hip_r/hip_rotation_r/value	/jointset/back/lumbar_extension/value	/jointset/patellofemoral_r/patellar_flexion_r/value	/jointset/knee_r/knee_flexion_r/value	/jointset/knee_r/knee_adduction_r/value	/jointset/knee_r/knee_rotation_r/value	/jointset/ankle_r/ankle_angle_r/value	/jointset/subtalar_r/subtalar_angle_r/value	/jointset/ground_pelvis/pelvis_tilt/speed	/jointset/ground_pelvis/pelvis_tx/speed	/jointset/ground_pelvis/pelvis_ty/speed	/jointset/hip_r/hip_flexion_r/speed	/jointset/hip_r/hip_adduction_r/speed	/jointset/hip_r/hip_rotation_r/speed	/jointset/back/lumbar_extension/speed	/jointset/patellofemoral_r/patellar_flexion_r/speed	/jointset/knee_r/knee_flexion_r/speed	/jointset/knee_r/knee_adduction_r/speed	/jointset/knee_r/knee_rotation_r/speed	/jointset/ankle_r/ankle_angle_r/speed	/jointset/subtalar_r/subtalar_angle_r/speed	/forceset/tau_hip_flexion_r	/forceset/tau_hip_adduction_r	/forceset/tau_hip_rotation_r	/forceset/tau_knee_flexion_r	/forceset/tau_ankle_angle_r	/forceset/tau_subtalar_angle_r	/forceset/tau_lumbar_extension	lambda_cid13_p0	lambda_cid14_p0	lambda_cid14_p1	lambda_cid14_p2	lambda_cid14_p3	lambda_cid14_p4	lambda_cid14_p5	/jointset/ground_pelvis/pelvis_tilt/accel	/jointset/ground_pelvis/pelvis_tx/accel	/jointset/ground_pelvis/pelvis_ty/accel	/jointset/hip_r/hip_flexion_r/accel	/jointset/hip_r/hip_adduction_r/accel	/jointset/hip_r/hip_rotation_r/accel	/jointset/back/lumbar_extension/accel	/jointset/patellofemoral_r/patellar_flexion_r/accel	/jointset/knee_r/knee_flexion_r/accel	/jointset/knee_r/knee_adduction_r/accel	/jointset/knee_r/knee_rotation_r/accel	/jointset/ankle_r/ankle_angle_r/accel	/jointset/subtalar_r/subtalar_angle_r/accel	gamma_cid13_p0	gamma_cid14_p0	gamma_cid14_p1	gamma_cid14_p2	gamma_cid14_p3	gamma_cid14_p4	gamma_cid14_p5
0	-0.01026274561284991	0.1334370223445577	0.932658641339658	0.1934211968871041	-0.2362323607003926	-0.2294354306635944	-0.2903787966825928	0.2311786273363378	0.2311786273363406	0.1510420210078485	0.1663054638526828	0.089344008118978	0.05371645395712647	0	0	0	0	0	0	0	0	0	0	0	0	0	0.1147608134228073	-0.03644851317267102	0.007064585764262503	-0.2470962863262999	0.1218038032624239	-0.1309241884379952	-0.03679354681387682	-29.77375368048316	-9.12731903683104	-53.78734450356021	3.661521524195273	7.529103304612731	-606.4151792009437	14.20824648882016	-2.569576765000064	-2.193922316088456	-0.9431078409203058	11.76142727832781	0.2923353110954141	2.418026641527797	-6.711361264323593	11.17046180659882	11.17046180659706	-3.410913783860345	0.4590242137478459	2.84499897646468	1.12951198708903	7.390808131491878e-08	6.146955674755961e-08	-4.859581170669927e-07	3.783538417197858e-07	4.693962276686508e-09	3.002861891539398e-07	-4.308934436965306e-07
0.01	-0.01038484831839026	0.133330219882471	0.9326127869871332	0.193993899162144	-0.2362153395546822	-0.2293133252152897	-0.2907154295661133	0.2317271130669117	0.231727113066921	0.1508690846588576	0.1663230162319668	0.08948632092681431	0.05377590290628007	-0.02438062374742989	-0.02109446086811548	-0.0091509869062415	0.1138779817801955	0.003355170703254032	0.02432279255383916	-0.06679573140321914	0.1091871828948252	0.109187182894823	-0.03434567922200848	0.003472729923124904	0.02852561066001207	0.01185064213305282	0.1153458725486817	-0.05840071688862878	0.00669633005517285	-0.2548797504182016	0.1315876595947717	-0.116174224422544	-0.03572456178487719	-29.7792193484057	-5.230470151631187	-46.59402270776607	2.394655844395207	2.239369031521906	-608.1092187644563	29.98710512216442	-2.366320574553522	-2.027302300829491	-0.8980515184446476	11.10161430827432	0.349736922051003	2.424738033412711	-6.584052283293594	10.71633726622445	10.71633726622505	-3.410199963966332	0.2858106630403921	2.865810930171398	1.206935939278118	9.8404863019082e-08	4.734046633274031e-08	-6.263064030684169e-07	5.093706853024835e-07	3.630607960368485e-08	1.495201297253236e-07	-5.998155136317988e-07
0.02	-0.01074956034039109	0.1330204539459721	0.9324760312849525	0.195685507391068	-0.2361662409075176	-0.2289509253472232	-0.2917040944046597	0.2333521687734982	0.2333521687734996	0.1503599305230911	0.1663741785667694	0.08991578360513451	0.05395267739933707	-0.04852186329242422	-0.04059269488244167	-0.01818026993124121	0.2237811907767543	0.006415500290941509	0.04805888395170828	-0.1304063910053476	0.2153139952016533	0.2153139952016499	-0.06724355734782261	0.006721991104072077	0.05742997409610165	0.02346510878069319	0.1159309316745368	-0.08035292060460834	0.006328074346062048	-0.2626632145101215	0.141371515927103	-0.101424260407124	-0.03465557675587802	-29.79509523846509	-1.245203118580706	-39.41019788246238	1.157837891330732	-2.952351237949293	-608.3307620839996	45.39622272381923	-2.521699924513013	-1.874676945330537	-0.9187670646719505	10.96647272160048	0.2333670879821036	2.300686410333793	-6.074346904105492	10.55838768899938	10.55838768899783	-3.121353564621476	0.4143304653122908	2.920749531680251	1.082276890006562	1.229016447232452e-07	3.3211375917921e-08	-7.666546890698412e-07	6.403875288851813e-07	6.79181969306832e-08	-1.245929703292664e-09	-7.68737583567067e-07
0.03	-0.01135423484200108	0.1325217139508411	0.9322492642832584	0.1984585302980477	-0.2360880522451569	-0.2283563774366661	-0.2933135416973744	0.2360235376608086	0.2360235376608048	0.1495290071030062	0.1664587506487161	0.09063367647439423	0.05424373518473846	-0.07229780908226446	-0.05908532911707616	-0.02717670712027991	0.3303269514847373	0.009189784556190909	0.07072097406836016	-0.1910664387675816	0.3184516230159611	0.3184516230159604	-0.09872141746596833	0.0101500996102585	0.08596605634564639	0.03466259976806123	0.1091361165126013	-0.08108010592684478	0.007177443611079806	-0.2549015352679392	0.130041109559537	-0.09556411468040497	-0.02925117423236497	-29.82067503657326	-4.567222397209743	-37.28966301356393	0.6402803757733503	-1.283030786221462	-608.4188383742535	48.48393197539356	-2.288251066097032	-1.826046696992163	-0.8906194112752787	10.42416734986881	0.2946009653129317	2.229637034698583	-5.999339396867374	10.11520176177355	10.11520176177495	-3.128102410485218	0.3008260733122875	2.792666772228227	1.125863756167847	1.316657219855925e-07	2.882206294199366e-08	-7.904113212717606e-07	6.971152565926332e-07	7.608034426290011e-08	-8.145787636627628e-08	-8.179504002693711e-07
0.04	-0.0121932106334847	0.1318401496064716	0.9319324254366227	0.2022821187330028	-0.2359830923662451	-0.2275390752804707	-0.2955170906046287	0.2397110331130787	0.2397110331130786	0.1483898850467335	0.1665763588217546	0.09163145600627545	0.05464424359062667	-0.09538212126721157	-0.07715756473016561	-0.03619463891955898	0.4338942963715857	0.01176974360210025	0.09260973307971934	-0.2492267139132247	0.4185393081953518	0.4185393081953623	-0.1288832845870787	0.01332920931806117	0.1134073066206575	0.045355232878067	0.1023413013506788	-0.08180729124906681	0.00802681287618592	-0.2471398560257579	0.1187107031919777	-0.08970396895366683	-0.02384677170884796	-29.85461549807449	-7.808414405441756	-35.17552638820641	0.147216931607166	0.4670413083232404	-607.1765663494544	51.23325707618219	-2.383373203534444	-1.790597221021464	-0.9230659867200286	10.37078955737352	0.1945020441140909	2.146020189275263	-5.574392380787351	9.948399162015967	9.948399162016091	-2.858154965214402	0.3645307056355297	2.701783136773596	0.9813053145341259	1.401054135893455e-07	2.463357011944552e-08	-8.117640018489479e-07	7.523112499521418e-07	8.375898705914213e-08	-1.602150990547108e-07	-8.646949849462533e-07
